<svg aria-hidden="true" style="position:absolute;width:0;height:0" xmlns="http://www.w3.org/2000/svg" overflow="hidden"><defs><symbol id="icon-facebook1" viewBox="0 0 14 27"><path d="M12.554.207v4.279S9.4 4.171 8.61 5.38c-.432.66-.175 2.596-.214 3.986h4.184c-.353 1.624-.606 2.725-.867 4.131h-3.34v13.296H2.576V13.548H.11V9.365h2.439c.125-3.059.171-6.09 1.692-7.633C5.948-.003 7.578.205 12.554.205z"/></symbol><symbol id="icon-twitter2" viewBox="0 0 32 27"><path d="M21.493.738c2.496-.044 3.825.865 5.094 2.021 1.078-.092 2.478-.693 3.303-1.113l.801-.438c-.471 1.273-1.109 2.269-2.091 3.026-.218.167-.434.394-.708.501v.016c1.399-.013 2.553-.646 3.649-.988v.016c-.576.914-1.355 1.843-2.186 2.509l-1.006.799c.018 1.481-.022 2.895-.298 4.14-1.61 7.235-5.876 12.146-12.627 14.251-2.425.755-6.343 1.065-9.121.376-1.377-.341-2.621-.728-3.789-1.238a14.838 14.838 0 01-1.825-.941l-.566-.344c.626.018 1.36.191 2.059.077.634-.102 1.256-.075 1.841-.202 1.458-.32 2.753-.744 3.867-1.397.541-.317 1.362-.687 1.746-1.144-.724.012-1.381-.156-1.918-.345-2.085-.736-3.299-2.09-4.089-4.124.632.07 2.452.234 2.878-.125-.795-.044-1.56-.504-2.107-.847-1.678-1.049-3.045-2.809-3.035-5.518l.66.313c.422.178.85.272 1.352.377.212.044.637.168.881.077h-.032c-.324-.377-.853-.628-1.179-1.035C1.971 8.102.963 6.043 1.6 3.591c.162-.622.419-1.171.692-1.678l.032.015c.125.263.405.455.582.675.55.681 1.227 1.294 1.918 1.834 2.354 1.841 4.473 2.972 7.878 3.809.864.214 1.862.376 2.894.377-.29-.843-.196-2.209.031-3.025.574-2.054 1.82-3.533 3.649-4.327a7.819 7.819 0 011.431-.439c.263-.031.524-.063.787-.093z"/></symbol><symbol id="icon-pinterest3" viewBox="0 0 22 27"><path d="M9.399 17.502c-.217.865-.436 1.772-.663 2.658-.223.874-.421 1.761-.746 2.565-.539 1.33-1.223 2.616-2.122 3.656-.597.693-.47.416-.65.379-.137-.029-.149-.163-.176-.358-.146-1.057-.047-2.279.007-3.467.062-1.354.347-2.48.612-3.605.503-2.143.982-4.244 1.49-6.401.033-.143.125-.38.093-.462-.231-.599-.38-1.137-.446-1.766a5.62 5.62 0 01.144-2.018c.288-1.099.948-2.072 1.967-2.428.648-.224 1.366-.123 1.802.137.449.269.757.693.9 1.294.154.639.04 1.403-.083 1.964-.277 1.266-.642 2.216-.973 3.437-.164.605-.35 1.227-.196 1.882.141.6.454 1.014.88 1.324.442.322.966.497 1.688.473 1.275-.045 2.161-.86 2.753-1.628.948-1.231 1.521-2.891 1.739-4.866.07-.638.121-1.37.073-2.091-.091-1.333-.508-2.406-1.17-3.237-.629-.792-1.522-1.422-2.609-1.777-1.077-.351-2.567-.468-3.891-.242-2.407.412-4.104 1.78-5.104 3.669a7.36 7.36 0 00-.869 3.541c0 1.091.269 1.937.704 2.596.138.209.341.381.476.62.192.339-.029.842-.124 1.209-.114.441-.127 1.051-.642 1.061-.214.004-.482-.152-.663-.252-1.355-.749-2.178-2.111-2.515-3.878a9.249 9.249 0 010-3.363 9.583 9.583 0 014.565-6.38C6.809 1.063 8.116.582 9.707.35a17.216 17.216 0 011.667-.137 10.029 10.029 0 014.492.841 9.186 9.186 0 013.095 2.229c.87.95 1.504 2.055 1.905 3.436.21.719.413 1.487.413 2.375 0 .891-.188 1.675-.32 2.459-.492 2.937-1.889 5.339-3.986 6.706a6.9 6.9 0 01-1.821.84c-.693.201-1.483.353-2.329.294a4.76 4.76 0 01-2.059-.599c-.561-.317-1.032-.705-1.367-1.292z"/></symbol><symbol id="icon-instagram4" viewBox="0 0 27 27"><path d="M23.573 26.792H3.635a3.324 3.324 0 01-3.323-3.324V3.531A3.324 3.324 0 013.635.207h19.938a3.324 3.324 0 013.323 3.324v19.937a3.324 3.324 0 01-3.323 3.324zM13.604 8.348a5.146 5.146 0 00-4.671 2.991h-.005l-.023.057a5.63 5.63 0 00-.133.333c-.02.055-.042.108-.059.162a4.73 4.73 0 00-.099.353c-.015.055-.031.11-.044.166a4.827 4.827 0 00-.063.382c-.007.052-.018.103-.024.156a5.15 5.15 0 1010.242 0c-.006-.053-.017-.104-.024-.156a5.244 5.244 0 00-.063-.382c-.012-.056-.029-.111-.044-.166a4.294 4.294 0 00-.099-.353c-.018-.054-.039-.107-.059-.162a5.63 5.63 0 00-.133-.333l-.023-.057h-.005a5.148 5.148 0 00-4.671-2.991zm10.301-3.821c0-.734-.595-1.328-1.329-1.328h-2.658c-.734 0-1.329.594-1.329 1.328v2.66c0 .734.595 1.329 1.329 1.329h2.658c.734 0 1.329-.595 1.329-1.329v-2.66zm0 6.812h-2.451a8.14 8.14 0 01-7.851 10.301 8.14 8.14 0 01-7.851-10.301H3.301v11.132c0 .735.595 1.33 1.329 1.33h17.945a1.33 1.33 0 001.329-1.33V11.339z"/></symbol></defs></svg>