<svg aria-hidden="true" style="position: absolute; width: 0; height: 0; overflow: hidden;" version="1.1" xmlns="http://www.w3.org/2000/svg" xmlns:xlink="http://www.w3.org/1999/xlink">
<defs>
<symbol id="icon-facebook1" viewBox="0 0 14 27">
<path d="M12.554 0.207c0 1.533 0 4.279 0 4.279s-3.154-0.315-3.944 0.894c-0.432 0.66-0.175 2.596-0.214 3.986 1.377 0 2.807 0 4.184 0-0.353 1.624-0.606 2.725-0.867 4.131-1.191 0-3.34 0-3.34 0v13.296c0 0-3.943 0-5.797 0 0.001-4.099-0.001-8.881 0-13.245-0.9 0-1.566 0-2.466 0 0-1.533 0-2.649 0-4.183 0.873 0 1.565 0 2.439 0 0.125-3.059 0.171-6.090 1.692-7.633 1.707-1.735 3.337-1.527 8.313-1.527z"></path>
</symbol>
<symbol id="icon-twitter2" viewBox="0 0 32 27">
<path d="M21.493 0.738c2.496-0.044 3.825 0.865 5.094 2.021 1.078-0.092 2.478-0.693 3.303-1.113 0.266-0.145 0.534-0.292 0.801-0.438-0.471 1.273-1.109 2.269-2.091 3.026-0.218 0.167-0.434 0.394-0.708 0.501 0 0.005 0 0.011 0 0.016 1.399-0.013 2.553-0.646 3.649-0.988 0 0.005 0 0.011 0 0.016-0.576 0.914-1.355 1.843-2.186 2.509-0.335 0.266-0.671 0.533-1.006 0.799 0.018 1.481-0.022 2.895-0.298 4.14-1.61 7.235-5.876 12.146-12.627 14.251-2.425 0.755-6.343 1.065-9.121 0.376-1.377-0.341-2.621-0.728-3.789-1.238-0.649-0.283-1.251-0.59-1.825-0.941-0.189-0.114-0.377-0.229-0.566-0.344 0.626 0.018 1.36 0.191 2.059 0.077 0.634-0.102 1.256-0.075 1.841-0.202 1.458-0.32 2.753-0.744 3.867-1.397 0.541-0.317 1.362-0.687 1.746-1.144-0.724 0.012-1.381-0.156-1.918-0.345-2.085-0.736-3.299-2.090-4.089-4.124 0.632 0.070 2.452 0.234 2.878-0.125-0.795-0.044-1.56-0.504-2.107-0.847-1.678-1.049-3.045-2.809-3.035-5.518 0.221 0.104 0.441 0.209 0.66 0.313 0.422 0.178 0.85 0.272 1.352 0.377 0.212 0.044 0.637 0.168 0.881 0.077-0.011 0-0.021 0-0.032 0-0.324-0.377-0.853-0.628-1.179-1.035-1.076-1.336-2.084-3.395-1.447-5.847 0.162-0.622 0.419-1.171 0.692-1.678 0.011 0.005 0.021 0.010 0.032 0.015 0.125 0.263 0.405 0.455 0.582 0.675 0.55 0.681 1.227 1.294 1.918 1.834 2.354 1.841 4.473 2.972 7.878 3.809 0.864 0.214 1.862 0.376 2.894 0.377-0.29-0.843-0.196-2.209 0.031-3.025 0.574-2.054 1.82-3.533 3.649-4.327 0.437-0.189 0.922-0.328 1.431-0.439 0.263-0.031 0.524-0.063 0.787-0.093z"></path>
</symbol>
<symbol id="icon-pinterest3" viewBox="0 0 22 27">
<path d="M9.399 17.502c-0.217 0.865-0.436 1.772-0.663 2.658-0.223 0.874-0.421 1.761-0.746 2.565-0.539 1.33-1.223 2.616-2.122 3.656-0.597 0.693-0.47 0.416-0.65 0.379-0.137-0.029-0.149-0.163-0.176-0.358-0.146-1.057-0.047-2.279 0.007-3.467 0.062-1.354 0.347-2.48 0.612-3.605 0.503-2.143 0.982-4.244 1.49-6.401 0.033-0.143 0.125-0.38 0.093-0.462-0.231-0.599-0.38-1.137-0.446-1.766-0.076-0.722-0.018-1.396 0.144-2.018 0.288-1.099 0.948-2.072 1.967-2.428 0.648-0.224 1.366-0.123 1.802 0.137 0.449 0.269 0.757 0.693 0.9 1.294 0.154 0.639 0.040 1.403-0.083 1.964-0.277 1.266-0.642 2.216-0.973 3.437-0.164 0.605-0.35 1.227-0.196 1.882 0.141 0.6 0.454 1.014 0.88 1.324 0.442 0.322 0.966 0.497 1.688 0.473 1.275-0.045 2.161-0.86 2.753-1.628 0.948-1.231 1.521-2.891 1.739-4.866 0.070-0.638 0.121-1.37 0.073-2.091-0.091-1.333-0.508-2.406-1.17-3.237-0.629-0.792-1.522-1.422-2.609-1.777-1.077-0.351-2.567-0.468-3.891-0.242-2.407 0.412-4.104 1.78-5.104 3.669-0.523 0.989-0.869 2.126-0.869 3.541 0 1.091 0.269 1.937 0.704 2.596 0.138 0.209 0.341 0.381 0.476 0.62 0.192 0.339-0.029 0.842-0.124 1.209-0.114 0.441-0.127 1.051-0.642 1.061-0.214 0.004-0.482-0.152-0.663-0.252-1.355-0.749-2.178-2.111-2.515-3.878-0.206-1.074-0.205-2.325 0-3.363 0.197-1.004 0.565-1.929 0.973-2.68 0.845-1.561 2.084-2.809 3.592-3.7 1.159-0.685 2.466-1.166 4.057-1.398 0.528-0.077 1.074-0.109 1.667-0.137 1.732-0.081 3.306 0.312 4.492 0.841 1.251 0.56 2.25 1.304 3.095 2.229 0.87 0.95 1.504 2.055 1.905 3.436 0.21 0.719 0.413 1.487 0.413 2.375 0 0.891-0.188 1.675-0.32 2.459-0.492 2.937-1.889 5.339-3.986 6.706-0.508 0.33-1.123 0.637-1.821 0.84-0.693 0.201-1.483 0.353-2.329 0.294-0.821-0.056-1.494-0.279-2.059-0.599-0.561-0.317-1.032-0.705-1.367-1.292z"></path>
</symbol>
<symbol id="icon-instagram4" viewBox="0 0 27 27">
<path d="M23.573 26.792h-19.938c-1.835 0-3.323-1.488-3.323-3.324v-19.937c0-1.836 1.488-3.324 3.323-3.324h19.938c1.835 0 3.323 1.488 3.323 3.324v19.937c0 1.836-1.488 3.324-3.323 3.324zM13.604 8.348c-2.073 0-3.854 1.227-4.671 2.991h-0.005c-0.008 0.019-0.015 0.038-0.023 0.057-0.049 0.109-0.091 0.221-0.133 0.333-0.020 0.055-0.042 0.108-0.059 0.162-0.038 0.116-0.070 0.234-0.099 0.353-0.015 0.055-0.031 0.11-0.044 0.166-0.027 0.126-0.046 0.253-0.063 0.382-0.007 0.052-0.018 0.103-0.024 0.156-0.019 0.181-0.030 0.364-0.030 0.551 0 2.844 2.306 5.15 5.151 5.15s5.151-2.305 5.151-5.15c0-0.187-0.011-0.371-0.030-0.551-0.006-0.053-0.017-0.104-0.024-0.156-0.018-0.129-0.036-0.257-0.063-0.382-0.012-0.056-0.029-0.111-0.044-0.166-0.029-0.119-0.060-0.237-0.099-0.353-0.018-0.054-0.039-0.107-0.059-0.162-0.042-0.112-0.084-0.224-0.133-0.333-0.008-0.019-0.015-0.038-0.023-0.057h-0.005c-0.817-1.763-2.598-2.991-4.671-2.991zM23.905 4.527c0-0.734-0.595-1.328-1.329-1.328h-2.658c-0.734 0-1.329 0.594-1.329 1.328v2.66c0 0.734 0.595 1.329 1.329 1.329h2.658c0.734 0 1.329-0.595 1.329-1.329v-2.66zM23.905 11.339h-2.451c0.189 0.689 0.291 1.413 0.291 2.161 0 4.497-3.645 8.14-8.142 8.14s-8.142-3.644-8.142-8.14c0-0.748 0.102-1.473 0.291-2.161h-2.451v11.132c0 0.735 0.595 1.33 1.329 1.33h17.945c0.734 0 1.329-0.595 1.329-1.33v-11.132z"></path>
</symbol>
</defs>
</svg>
